HIERARCHY
ROOT Root
{
  OFFSET 9.34113 11.8871 -1.86773
  CHANNELS 6 Xposition Yposition Zposition Zrotation Xrotation Yrotation
  JOINT Spine
  {
    OFFSET 5.3114 0 0
    CHANNELS 3 Zrotation Xrotation Yrotation
    JOINT Spine1
    {
      OFFSET 2.79004 0 0
      CHANNELS 3 Zrotation Xrotation Yrotation
      JOINT Neck
      {
        OFFSET 1.43377 0 0
        CHANNELS 3 Zrotation Xrotation Yrotation
        JOINT Head
        {
          OFFSET 1.86043 0 0
          CHANNELS 3 Zrotation Xrotation Yrotation
          End Site
          {
            OFFSET 0 0 0
          }
        }
      }
      JOINT LeftArm
      {
        OFFSET 0.0387506 0 2.55754
        CHANNELS 3 Zrotation Xrotation Yrotation
        JOINT LeftForeArm
        {
          OFFSET 4.24845 0 0
          CHANNELS 3 Zrotation Xrotation Yrotation
          JOINT LeftHand
          {
            OFFSET 4.01008 0 0
            CHANNELS 3 Zrotation Xrotation Yrotation
            End Site
            {
              OFFSET 0 0 0
            }
          }
        }
      }
      JOINT RightArm
      {
        OFFSET 0.0387506 0 -2.55754
        CHANNELS 3 Zrotation Xrotation Yrotation
        JOINT RightForeArm
        {
          OFFSET -4.24845 0 0
          CHANNELS 3 Zrotation Xrotation Yrotation
          JOINT RightHand
          {
            OFFSET -4.01009 0 0
            CHANNELS 3 Zrotation Xrotation Yrotation
            End Site
            {
              OFFSET 0 0 0
            }
          }
        }
      }
    }
  }
  JOINT LeftUpLeg
  {
    OFFSET -1.23318 0 2.05692
    CHANNELS 3 Zrotation Xrotation Yrotation
    JOINT LeftLeg
    {
      OFFSET 5.46397 0 0
      CHANNELS 3 Zrotation Xrotation Yrotation
      JOINT LeftFoot
      {
        OFFSET 4.68898 0 0
        CHANNELS 3 Zrotation Xrotation Yrotation
        End Site
        {
          OFFSET 0 0 0
        }
      }
    }
  }
  JOINT RightUpLeg
  {
    OFFSET -1.24454 0 -2.05007
    CHANNELS 3 Zrotation Xrotation Yrotation
    JOINT RightLeg
    {
      OFFSET -5.46397 0 0
      CHANNELS 3 Zrotation Xrotation Yrotation
      JOINT RightFoot
      {
        OFFSET -4.68901 0 0
        CHANNELS 3 Zrotation Xrotation Yrotation
        End Site
        {
          OFFSET 0 0 0
        }
      }
    }
  }
}
MOTION
Frames:	13
Frame Time:	0.00833333
-4.67947 12.1627 8.80981 -74.6771 -12.0529 172.473 26.9457 -4.83488 -2.3804 7.92247 -0.398191 1.36335 -13.0067 0.155272 -9.70627 27.8119 3.07973 15.9052 -10.7014 -39.804 -136.893 69.966 18.2396 35.8384 -2.01651 -21.8966 174.063 -167.017 -6.64152 -156.478 35.4118 3.28885 20.279 0.684441 7.76776 174.404 0.611681 3.40554 -168.9 -48.0333 -0.871081 -1.73145 28.5207 6.32138 172.907 78.5895 -22.1359 -176.207 -33.4309 -0.649954 -1.43566 -6.69272 -16.1791 176.01 
-4.68107 12.1711 8.79567 -74.6736 -12.3347 172.365 27.5833 -5.12674 -1.90344 7.99021 -0.475007 1.44538 -12.7499 0.224028 -9.70648 27.6615 3.22233 15.8195 -11.1195 -39.2535 -137.299 70.3552 18.4688 35.9668 -2.01339 -21.8592 174.064 -166.482 -6.0334 -156.816 35.2688 3.24878 20.2024 0.695082 7.88798 174.403 0.618687 3.31327 -168.775 -47.9545 -0.871561 -1.73709 28.3852 6.45099 172.815 84.4719 -24.8662 -174.099 -22.0083 -0.56066 -1.20579 -1.04251 -20.5342 177.763 
-4.68248 12.1778 8.7821 -74.6608 -12.666 172.242 28.1297 -5.43123 -1.37644 8.04041 -0.563187 1.54167 -12.4803 0.287604 -9.7044 27.6217 3.37338 15.7052 -11.4504 -38.6955 -137.834 70.6651 18.6531 36.0678 -2.00972 -21.8161 174.066 -165.905 -5.41365 -157.202 35.0415 3.18716 20.0795 0.702997 7.97768 174.402 0.606908 3.13573 -168.643 -47.9493 -0.869196 -1.74298 28.2883 6.55817 172.738 90.3665 -27.326 -171.837 -11.6244 -0.453171 -1.02291 4.87656 -24.7395 179.67 
-4.68057 12.1781 8.76934 -74.6213 -12.9774 172.158 28.5488 -5.70413 -0.883685 8.07547 -0.647388 1.63372 -12.2409 0.333203 -9.68991 27.7312 3.50235 15.5445 -11.6501 -38.1914 -138.443 70.8745 18.7761 36.1363 -2.0044 -21.758 174.068 -165.307 -4.74797 -157.654 34.7112 3.10081 19.8994 0.708246 8.03755 174.402 0.592143 2.92387 -168.563 -48.0687 -0.865548 -1.75048 28.2888 6.64318 172.673 94.937 -28.7835 -170.079 -4.0933 -0.375229 -0.891887 9.28239 -27.6766 -178.876 
-4.6727 12.1699 8.75744 -74.5416 -13.2921 172.111 28.8328 -5.94136 -0.407542 8.07858 -0.728769 1.72604 -12.0258 0.353004 -9.66629 28.0639 3.61004 15.3369 -11.7095 -37.7597 -139.149 70.9488 18.8161 36.1601 -1.99758 -21.6858 174.071 -164.664 -4.0308 -158.188 34.2508 2.9814 19.6481 0.70169 7.96524 174.404 0.574222 2.64927 -168.524 -48.3622 -0.858952 -1.76072 28.4176 6.71837 172.614 97.6128 -28.8617 -169.007 -0.0571055 -0.332023 -0.828479 11.6241 -28.9505 -178.034 
-4.66115 12.1562 8.74627 -74.4336 -13.6336 172.077 28.9998 -6.16378 0.0835893 8.05432 -0.813756 1.82534 -11.8179 0.355301 -9.63692 28.5781 3.70979 15.0905 -11.6473 -37.3605 -139.97 70.9096 18.788 36.1451 -1.9897 -21.6032 174.074 -163.969 -3.2768 -158.79 33.6765 2.83266 19.3354 0.686358 7.79458 174.406 0.546116 2.29875 -168.504 -48.7907 -0.84927 -1.77274 28.6382 6.77952 172.562 99.033 -28.042 -168.337 1.50497 -0.300616 -0.825257 12.7091 -29.1974 -177.543 
-4.65014 12.139 8.73583 -74.3162 -13.9315 172.08 29.0498 -6.36495 0.526019 8.03703 -0.894929 1.91647 -11.6433 0.35147 -9.59188 29.1392 3.78972 14.8 -11.4659 -36.9706 -140.842 70.8197 18.7302 36.1132 -1.9801 -21.5057 174.078 -163.267 -2.48192 -159.431 33.0349 2.66953 18.9854 0.680546 7.73044 174.408 0.511471 1.94579 -168.543 -49.2722 -0.840349 -1.78467 28.9076 6.80213 172.535 99.5883 -26.9158 -168.079 1.27305 -0.286569 -0.852348 12.6221 -28.8672 -177.456 
-4.64388 12.1205 8.72614 -74.2076 -14.1167 172.141 28.9816 -6.53865 0.855933 8.06086 -0.964871 1.98426 -11.5281 0.352892 -9.52127 29.6121 3.83789 14.4601 -11.1695 -36.5704 -141.7 70.7422 18.6812 36.0861 -1.96811 -21.3889 174.083 -162.609 -1.64274 -160.085 32.3732 2.50721 18.6224 0.702528 7.97771 174.406 0.473081 1.66371 -168.679 -49.725 -0.836036 -1.79467 29.1832 6.76168 172.549 99.7062 -26.0646 -168.232 -0.0728501 -0.295439 -0.879883 11.4855 -28.4059 -177.809 
-4.64456 12.1 8.71713 -74.0914 -14.1806 172.282 28.786 -6.69373 1.05043 8.13839 -1.02331 2.03493 -11.4775 0.361068 -9.42145 29.9726 3.84321 14.0448 -10.7544 -36.155 -142.557 70.6694 18.6372 36.0618 -1.94972 -21.2158 174.09 -161.978 -0.737174 -160.756 31.7114 2.34906 18.258 0.758498 8.6045 174.398 0.43714 1.45635 -168.943 -50.162 -0.838031 -1.80278 29.4765 6.63027 172.62 99.284 -25.6824 -168.94 -2.84017 -0.340188 -0.899733 8.82669 -27.8436 -178.812 
-4.64956 12.0766 8.70881 -73.9652 -14.1567 172.484 28.4645 -6.83026 1.14528 8.2501 -1.07364 2.07313 -11.4779 0.370443 -9.29805 30.2877 3.81426 13.5651 -10.2187 -35.7333 -143.438 70.5759 18.5824 36.0313 -1.9266 -21.0008 174.098 -161.353 0.227263 -161.455 31.0216 2.18711 17.8775 0.838563 9.49702 174.385 0.398931 1.28953 -169.305 -50.6151 -0.844058 -1.8098 29.8034 6.42801 172.735 98.1875 -25.4359 -170.147 -7.22873 -0.414024 -0.927884 4.79316 -26.9579 179.642 
-4.65598 12.0527 8.70132 -73.8686 -14.0381 172.717 28.0319 -6.92898 1.16463 8.38194 -1.11395 2.08138 -11.5286 0.381816 -9.155 30.5595 3.76871 13.0717 -9.57162 -35.3105 -144.295 70.4979 18.5371 36.0061 -1.90657 -20.8161 174.106 -160.776 1.20817 -162.16 30.2791 2.01957 17.4659 0.936977 10.5873 174.368 0.345861 1.17969 -169.725 -51.0315 -0.851999 -1.81505 30.1269 6.20239 172.867 96.7989 -25.1153 -171.558 -12.3971 -0.492874 -0.97064 0.430451 -25.8237 177.989 
-4.66089 12.0303 8.69483 -73.8415 -13.8181 172.949 27.5037 -6.97057 1.13268 8.51981 -1.1423 2.04219 -11.6286 0.395991 -8.99623 30.7906 3.72452 12.615 -8.82473 -34.8945 -145.084 70.4717 18.5217 35.9975 -1.89738 -20.7339 174.109 -160.289 2.16191 -162.851 29.4588 1.8446 17.0082 1.04796 11.8075 174.346 0.266515 1.14353 -170.161 -51.3586 -0.859739 -1.81784 30.4096 6.00103 172.992 95.5121 -24.5195 -172.872 -17.5037 -0.552664 -1.0343 -3.25564 -24.5341 176.646 
-4.6631 12.0089 8.68981 -73.9094 -13.4676 173.172 26.8463 -6.9471 1.03985 8.66587 -1.15827 1.93996 -11.7809 0.416078 -8.82635 30.9571 3.6851 12.2098 -7.94591 -34.4774 -145.782 70.5222 18.5504 36.0135 -1.90472 -20.809 174.106 -159.92 3.08026 -163.518 28.5067 1.65213 16.4738 1.17597 13.2017 174.319 0.146281 1.19953 -170.612 -51.5922 -0.866549 -1.81804 30.6438 5.84769 173.097 94.2586 -23.4999 -174.075 -22.6731 -0.585211 -1.12684 -6.12617 -23.0319 175.649 
